<?xml version="1.0" encoding="UTF-8"?><svg xmlns="http://www.w3.org/2000/svg" xmlns:xlink="http://www.w3.org/1999/xlink" width="384" zoomAndPan="magnify" viewBox="0 0 384 383.999986" height="383.999986" preserveAspectRatio="xMidYMid meet" version="1.0"><defs><clipPath id="clip-0"><path d="M 12 90.503906 L 371.964844 90.503906 L 371.964844 293.753906 L 12 293.753906 Z M 12 90.503906 " clip-rule="nonzero"/></clipPath></defs><g clip-path="url(#clip-0)"><path fill="rgb(42.349243%, 84.309387%, 85.099792%)" d="M 371.839844 213.472656 C 371.839844 242.980469 347.960938 266.894531 318.496094 266.894531 C 317.464844 266.894531 316.4375 266.894531 315.335938 266.820312 C 309.457031 266.453125 303.800781 265.203125 298.582031 263.070312 C 295.347656 266.894531 291.824219 270.429688 288 273.664062 C 273.160156 286.175781 253.980469 293.753906 233.039062 293.753906 C 214.671875 293.753906 197.621094 287.941406 183.660156 278.007812 C 179.546875 279.40625 175.285156 280.4375 170.949219 281.171875 C 166.246094 281.980469 161.472656 282.347656 156.546875 282.347656 C 141.117188 282.347656 126.644531 278.226562 114.078125 271.089844 C 108.640625 268 103.644531 264.320312 99.015625 260.125 C 89.832031 267.558594 78.148438 272.046875 65.433594 272.046875 C 44.640625 272.046875 26.636719 260.125 17.820312 242.757812 C 14.148438 235.472656 12.089844 227.304688 12.089844 218.621094 C 12.089844 189.113281 35.96875 165.195312 65.433594 165.195312 C 65.65625 165.195312 65.875 165.195312 66.097656 165.195312 C 71.609375 123.03125 107.464844 90.503906 150.964844 90.503906 C 178.519531 90.503906 203.058594 103.605469 218.636719 123.914062 C 223.339844 123.105469 228.117188 122.738281 233.039062 122.738281 C 263.164062 122.738281 289.617188 138.335938 304.828125 161.886719 C 309.164062 160.707031 313.792969 160.121094 318.496094 160.121094 C 346.859375 160.121094 370.078125 182.269531 371.765625 210.304688 C 371.765625 211.335938 371.839844 212.367188 371.839844 213.472656 Z M 371.839844 213.472656 " fill-opacity="1" fill-rule="nonzero"/></g></svg>